<svg width="288" height="20" viewBox="0 0 288 20" fill="none" xmlns="http://www.w3.org/2000/svg">
<path d="M10.5112 4.62793V6.06592L8.8877 6.4834C9.18457 6.94727 9.33301 7.4668 9.33301 8.04199C9.33301 9.15527 8.94336 10.0243 8.16406 10.6489C7.39095 11.2674 6.31478 11.5767 4.93555 11.5767L4.42529 11.5488L4.00781 11.5024C3.71712 11.7251 3.57178 11.9725 3.57178 12.2446C3.57178 12.6528 4.09131 12.8569 5.13037 12.8569H6.89307C8.03109 12.8569 8.89697 13.1012 9.49072 13.5898C10.0907 14.0785 10.3906 14.7959 10.3906 15.7422C10.3906 16.9544 9.88346 17.8945 8.86914 18.5625C7.861 19.2305 6.41064 19.5645 4.51807 19.5645C3.0708 19.5645 1.9637 19.3109 1.19678 18.8037C0.436035 18.3027 0.0556641 17.5977 0.0556641 16.6885C0.0556641 16.0638 0.250488 15.5412 0.640137 15.1206C1.02979 14.7 1.60189 14.4001 2.35645 14.2207C2.06576 14.097 1.81217 13.896 1.5957 13.6177C1.37923 13.3332 1.271 13.0332 1.271 12.7178C1.271 12.3219 1.38542 11.9941 1.61426 11.7344C1.8431 11.4684 2.17399 11.2087 2.60693 10.9551C2.06266 10.7201 1.62972 10.3428 1.30811 9.82324C0.992676 9.30371 0.834961 8.69141 0.834961 7.98633C0.834961 6.85449 1.20296 5.97933 1.93896 5.36084C2.67497 4.74235 3.7264 4.43311 5.09326 4.43311C5.38395 4.43311 5.72721 4.46094 6.12305 4.5166C6.52507 4.56608 6.78174 4.60319 6.89307 4.62793H10.5112ZM2.50488 16.4658C2.50488 16.8555 2.69043 17.1616 3.06152 17.3843C3.4388 17.6069 3.96452 17.7183 4.63867 17.7183C5.65299 17.7183 6.44775 17.5791 7.02295 17.3008C7.59814 17.0225 7.88574 16.6421 7.88574 16.1597C7.88574 15.77 7.71566 15.501 7.37549 15.3525C7.03532 15.2041 6.5096 15.1299 5.79834 15.1299H4.33252C3.81299 15.1299 3.37695 15.2505 3.02441 15.4917C2.67806 15.7391 2.50488 16.0638 2.50488 16.4658ZM3.53467 8.02344C3.53467 8.58626 3.66146 9.03158 3.91504 9.35938C4.1748 9.68717 4.56755 9.85107 5.09326 9.85107C5.62516 9.85107 6.01481 9.68717 6.26221 9.35938C6.5096 9.03158 6.6333 8.58626 6.6333 8.02344C6.6333 6.77409 6.11995 6.14941 5.09326 6.14941C4.0542 6.14941 3.53467 6.77409 3.53467 8.02344ZM17.3568 15H14.4901V7.15137L14.5179 5.86182L14.5643 4.45166C14.0881 4.9279 13.7572 5.24023 13.5716 5.38867L12.013 6.64111L10.6307 4.91553L15.0004 1.43652H17.3568V15Z" fill="#A80001"/>
<path d="M100.945 4.62793V6.06592L99.3218 6.4834C99.6186 6.94727 99.7671 7.4668 99.7671 8.04199C99.7671 9.15527 99.3774 10.0243 98.5981 10.6489C97.825 11.2674 96.7488 11.5767 95.3696 11.5767L94.8594 11.5488L94.4419 11.5024C94.1512 11.7251 94.0058 11.9725 94.0058 12.2446C94.0058 12.6528 94.5254 12.8569 95.5644 12.8569H97.3271C98.4651 12.8569 99.331 13.1012 99.9248 13.5898C100.525 14.0785 100.825 14.7959 100.825 15.7422C100.825 16.9544 100.318 17.8945 99.3032 18.5625C98.2951 19.2305 96.8447 19.5645 94.9521 19.5645C93.5049 19.5645 92.3978 19.3109 91.6308 18.8037C90.8701 18.3027 90.4897 17.5977 90.4897 16.6885C90.4897 16.0638 90.6845 15.5412 91.0742 15.1206C91.4638 14.7 92.0359 14.4001 92.7905 14.2207C92.4998 14.097 92.2462 13.896 92.0298 13.6177C91.8133 13.3332 91.7051 13.0332 91.7051 12.7178C91.7051 12.3219 91.8195 11.9941 92.0483 11.7344C92.2772 11.4684 92.6081 11.2087 93.041 10.9551C92.4967 10.7201 92.0638 10.3428 91.7422 9.82324C91.4267 9.30371 91.269 8.69141 91.269 7.98633C91.269 6.85449 91.637 5.97933 92.373 5.36084C93.109 4.74235 94.1605 4.43311 95.5273 4.43311C95.818 4.43311 96.1613 4.46094 96.5571 4.5166C96.9591 4.56608 97.2158 4.60319 97.3271 4.62793H100.945ZM92.9389 16.4658C92.9389 16.8555 93.1245 17.1616 93.4956 17.3843C93.8729 17.6069 94.3986 17.7183 95.0727 17.7183C96.0871 17.7183 96.8818 17.5791 97.457 17.3008C98.0322 17.0225 98.3198 16.6421 98.3198 16.1597C98.3198 15.77 98.1497 15.501 97.8095 15.3525C97.4694 15.2041 96.9437 15.1299 96.2324 15.1299H94.7666C94.247 15.1299 93.811 15.2505 93.4585 15.4917C93.1121 15.7391 92.9389 16.0638 92.9389 16.4658ZM93.9687 8.02344C93.9687 8.58626 94.0955 9.03158 94.3491 9.35938C94.6089 9.68717 95.0016 9.85107 95.5273 9.85107C96.0592 9.85107 96.4489 9.68717 96.6963 9.35938C96.9437 9.03158 97.0674 8.58626 97.0674 8.02344C97.0674 6.77409 96.554 6.14941 95.5273 6.14941C94.4883 6.14941 93.9687 6.77409 93.9687 8.02344ZM108.663 11.9199C108.663 12.9837 108.292 13.7939 107.55 14.3506C106.814 14.9072 105.71 15.1855 104.238 15.1855C103.483 15.1855 102.84 15.133 102.308 15.0278C101.776 14.9289 101.278 14.7804 100.814 14.5825V12.2446C101.34 12.492 101.931 12.6992 102.586 12.8662C103.248 13.0332 103.829 13.1167 104.33 13.1167C105.357 13.1167 105.87 12.8198 105.87 12.2261C105.87 12.0034 105.802 11.8241 105.666 11.688C105.53 11.5457 105.295 11.388 104.961 11.2148C104.627 11.0355 104.182 10.8283 103.625 10.5933C102.827 10.2593 102.24 9.95003 101.863 9.66553C101.492 9.38102 101.219 9.05632 101.046 8.69141C100.879 8.32031 100.796 7.86572 100.796 7.32764C100.796 6.40609 101.151 5.69482 101.863 5.19385C102.58 4.68669 103.594 4.43311 104.906 4.43311C106.155 4.43311 107.37 4.70524 108.552 5.24951L107.698 7.29053C107.179 7.06787 106.693 6.88542 106.242 6.74316C105.79 6.60091 105.329 6.52979 104.859 6.52979C104.024 6.52979 103.607 6.75553 103.607 7.20703C103.607 7.46061 103.74 7.68018 104.006 7.86572C104.278 8.05127 104.868 8.3265 105.778 8.69141C106.588 9.01921 107.182 9.32536 107.559 9.60986C107.936 9.89437 108.215 10.2222 108.394 10.5933C108.573 10.9644 108.663 11.4066 108.663 11.9199ZM119.21 15H116.381V8.94189C116.381 7.44515 115.824 6.69678 114.711 6.69678C113.919 6.69678 113.347 6.96582 112.994 7.50391C112.642 8.04199 112.466 8.91406 112.466 10.1201V15H109.636V0.564453H112.466V3.50537C112.466 3.73421 112.444 4.2723 112.401 5.11963L112.336 5.95459H112.484C113.115 4.94027 114.117 4.43311 115.49 4.43311C116.708 4.43311 117.633 4.7609 118.264 5.4165C118.895 6.0721 119.21 7.01221 119.21 8.23682V15ZM123.143 9.79541C123.143 10.8221 123.31 11.5983 123.644 12.124C123.984 12.6497 124.534 12.9126 125.295 12.9126C126.05 12.9126 126.591 12.6528 126.919 12.1333C127.253 11.6076 127.419 10.8283 127.419 9.79541C127.419 8.76872 127.253 7.9987 126.919 7.48535C126.585 6.97201 126.037 6.71533 125.276 6.71533C124.522 6.71533 123.978 6.97201 123.644 7.48535C123.31 7.99251 123.143 8.76253 123.143 9.79541ZM130.314 9.79541C130.314 11.4839 129.869 12.8044 128.978 13.7568C128.087 14.7093 126.847 15.1855 125.258 15.1855C124.262 15.1855 123.384 14.9691 122.623 14.5361C121.862 14.097 121.278 13.4692 120.87 12.6528C120.461 11.8364 120.257 10.884 120.257 9.79541C120.257 8.10075 120.7 6.78337 121.584 5.84326C122.468 4.90316 123.712 4.43311 125.314 4.43311C126.309 4.43311 127.188 4.64958 127.948 5.08252C128.709 5.51546 129.294 6.13704 129.702 6.94727C130.11 7.75749 130.314 8.70687 130.314 9.79541ZM139.943 15L139.145 11.3726L138.069 6.78955H138.004L136.111 15H133.068L130.118 4.62793H132.938L134.135 9.22021C134.327 10.0428 134.522 11.1777 134.72 12.625H134.775C134.8 12.1549 134.908 11.4097 135.1 10.3892L135.248 9.60059L136.529 4.62793H139.646L140.861 9.60059C140.886 9.73665 140.923 9.93766 140.973 10.2036C141.028 10.4696 141.081 10.7541 141.13 11.0571C141.18 11.354 141.223 11.6478 141.26 11.9385C141.303 12.223 141.328 12.4518 141.334 12.625H141.39C141.446 12.1797 141.545 11.5705 141.687 10.7974C141.829 10.0181 141.931 9.49235 141.993 9.22021L143.236 4.62793H146.01L143.023 15H139.943Z" fill="#FF7F00"/>
<path d="M55.5427 4.62793V6.06592L53.9192 6.4834C54.2161 6.94727 54.3645 7.4668 54.3645 8.04199C54.3645 9.15527 53.9748 10.0243 53.1955 10.6489C52.4224 11.2674 51.3463 11.5767 49.967 11.5767L49.4568 11.5488L49.0393 11.5024C48.7486 11.7251 48.6033 11.9725 48.6033 12.2446C48.6033 12.6528 49.1228 12.8569 50.1619 12.8569H51.9245C53.0626 12.8569 53.9285 13.1012 54.5222 13.5898C55.1221 14.0785 55.4221 14.7959 55.4221 15.7422C55.4221 16.9544 54.9149 17.8945 53.9006 18.5625C52.8925 19.2305 51.4421 19.5645 49.5495 19.5645C48.1023 19.5645 46.9952 19.3109 46.2283 18.8037C45.4675 18.3027 45.0871 17.5977 45.0871 16.6885C45.0871 16.0638 45.282 15.5412 45.6716 15.1206C46.0613 14.7 46.6334 14.4001 47.3879 14.2207C47.0972 14.097 46.8437 13.896 46.6272 13.6177C46.4107 13.3332 46.3025 13.0332 46.3025 12.7178C46.3025 12.3219 46.4169 11.9941 46.6457 11.7344C46.8746 11.4684 47.2055 11.2087 47.6384 10.9551C47.0941 10.7201 46.6612 10.3428 46.3396 9.82324C46.0242 9.30371 45.8664 8.69141 45.8664 7.98633C45.8664 6.85449 46.2344 5.97933 46.9704 5.36084C47.7065 4.74235 48.7579 4.43311 50.1247 4.43311C50.4154 4.43311 50.7587 4.46094 51.1545 4.5166C51.5565 4.56608 51.8132 4.60319 51.9245 4.62793H55.5427ZM47.5364 16.4658C47.5364 16.8555 47.7219 17.1616 48.093 17.3843C48.4703 17.6069 48.996 17.7183 49.6702 17.7183C50.6845 17.7183 51.4792 17.5791 52.0544 17.3008C52.6296 17.0225 52.9172 16.6421 52.9172 16.1597C52.9172 15.77 52.7471 15.501 52.407 15.3525C52.0668 15.2041 51.5411 15.1299 50.8298 15.1299H49.364C48.8445 15.1299 48.4084 15.2505 48.0559 15.4917C47.7095 15.7391 47.5364 16.0638 47.5364 16.4658ZM48.5662 8.02344C48.5662 8.58626 48.6929 9.03158 48.9465 9.35938C49.2063 9.68717 49.599 9.85107 50.1247 9.85107C50.6566 9.85107 51.0463 9.68717 51.2937 9.35938C51.5411 9.03158 51.6648 8.58626 51.6648 8.02344C51.6648 6.77409 51.1514 6.14941 50.1247 6.14941C49.0857 6.14941 48.5662 6.77409 48.5662 8.02344ZM60.3194 6.44629C59.7195 6.44629 59.2494 6.63802 58.9093 7.02148C58.5691 7.39876 58.3743 7.93685 58.3248 8.63574H62.2955C62.2831 7.93685 62.1007 7.39876 61.7481 7.02148C61.3956 6.63802 60.9194 6.44629 60.3194 6.44629ZM60.7184 15.1855C59.0484 15.1855 57.7434 14.7248 56.8033 13.8032C55.8632 12.8817 55.3932 11.5767 55.3932 9.88818C55.3932 8.15023 55.8261 6.80811 56.692 5.86182C57.5641 4.90934 58.767 4.43311 60.3009 4.43311C61.7667 4.43311 62.9078 4.85059 63.7242 5.68555C64.5406 6.52051 64.9488 7.67399 64.9488 9.146V10.519H58.2599C58.2908 11.3231 58.5289 11.9508 58.9742 12.4023C59.4195 12.8538 60.0442 13.0796 60.8482 13.0796C61.4729 13.0796 62.0636 13.0146 62.6202 12.8848C63.1769 12.7549 63.7582 12.5477 64.3644 12.2632V14.4526C63.8696 14.7 63.3408 14.8825 62.7779 15C62.2151 15.1237 61.5286 15.1855 60.7184 15.1855Z" fill="#06AA48"/>
<path d="M176.728 12.9312C177.223 12.9312 177.816 12.8229 178.509 12.6064V14.7124C177.804 15.0278 176.938 15.1855 175.911 15.1855C174.78 15.1855 173.954 14.901 173.434 14.332C172.921 13.7568 172.664 12.8971 172.664 11.7529V6.75244H171.31V5.55566L172.868 4.60938L173.685 2.41992H175.494V4.62793H178.398V6.75244H175.494V11.7529C175.494 12.1549 175.605 12.4518 175.828 12.6436C176.057 12.8353 176.357 12.9312 176.728 12.9312ZM183.675 6.44629C183.076 6.44629 182.605 6.63802 182.265 7.02148C181.925 7.39876 181.73 7.93685 181.681 8.63574H185.652C185.639 7.93685 185.457 7.39876 185.104 7.02148C184.752 6.63802 184.275 6.44629 183.675 6.44629ZM184.074 15.1855C182.404 15.1855 181.099 14.7248 180.159 13.8032C179.219 12.8817 178.749 11.5767 178.749 9.88818C178.749 8.15023 179.182 6.80811 180.048 5.86182C180.92 4.90934 182.123 4.43311 183.657 4.43311C185.123 4.43311 186.264 4.85059 187.08 5.68555C187.897 6.52051 188.305 7.67399 188.305 9.146V10.519H181.616C181.647 11.3231 181.885 11.9508 182.33 12.4023C182.776 12.8538 183.4 13.0796 184.204 13.0796C184.829 13.0796 185.42 13.0146 185.976 12.8848C186.533 12.7549 187.114 12.5477 187.72 12.2632V14.4526C187.226 14.7 186.697 14.8825 186.134 15C185.571 15.1237 184.885 15.1855 184.074 15.1855ZM193.583 15.1855C190.354 15.1855 188.74 13.4136 188.74 9.86963C188.74 8.10693 189.179 6.76172 190.057 5.83398C190.935 4.90007 192.194 4.43311 193.833 4.43311C195.033 4.43311 196.109 4.66813 197.062 5.13818L196.227 7.32764C195.781 7.14827 195.367 7.00293 194.983 6.8916C194.6 6.77409 194.216 6.71533 193.833 6.71533C192.361 6.71533 191.625 7.76058 191.625 9.85107C191.625 11.8797 192.361 12.894 193.833 12.894C194.377 12.894 194.881 12.8229 195.345 12.6807C195.809 12.5322 196.273 12.3034 196.737 11.9941V14.4155C196.279 14.7062 195.815 14.9072 195.345 15.0186C194.881 15.1299 194.294 15.1855 193.583 15.1855ZM207.488 15H204.659V8.94189C204.659 7.44515 204.102 6.69678 202.989 6.69678C202.197 6.69678 201.625 6.96582 201.272 7.50391C200.92 8.04199 200.744 8.91406 200.744 10.1201V15H197.914V0.564453H200.744V3.50537C200.744 3.73421 200.722 4.2723 200.679 5.11963L200.614 5.95459H200.762C201.393 4.94027 202.395 4.43311 203.768 4.43311C204.986 4.43311 205.911 4.7609 206.542 5.4165C207.173 6.0721 207.488 7.01221 207.488 8.23682V15Z" fill="#666666"/>
<path d="M237.538 15L233.586 4.62793H236.545L238.549 10.5376C238.772 11.286 238.911 11.9941 238.967 12.6621H239.022C239.053 12.0684 239.192 11.3602 239.44 10.5376L241.434 4.62793H244.394L240.442 15H237.538ZM247.482 15H244.652V4.62793H247.482V15ZM244.513 3.48682V3.23633C245.577 1.99935 246.304 1.06852 246.693 0.443848H249.866V0.638672C249.545 0.960286 248.994 1.43962 248.215 2.07666C247.442 2.70752 246.836 3.17757 246.397 3.48682H244.513ZM252.509 15.1855C251.291 15.1855 250.332 14.7124 249.633 13.7661C248.941 12.8198 248.594 11.5086 248.594 9.83252C248.594 8.13167 248.947 6.80811 249.652 5.86182C250.363 4.90934 251.34 4.43311 252.583 4.43311C253.888 4.43311 254.884 4.94027 255.571 5.95459H255.664C255.521 5.18148 255.45 4.49186 255.45 3.88574V0.564453H258.289V15H256.118L255.571 13.6548H255.45C254.807 14.6753 253.827 15.1855 252.509 15.1855ZM253.502 12.9312C254.226 12.9312 254.754 12.7209 255.088 12.3003C255.429 11.8797 255.614 11.1654 255.645 10.1572V9.85107C255.645 8.73779 255.472 7.93994 255.125 7.45752C254.785 6.9751 254.229 6.73389 253.456 6.73389C252.825 6.73389 252.333 7.00293 251.98 7.54102C251.634 8.07292 251.461 8.84912 251.461 9.86963C251.461 10.8901 251.637 11.6571 251.99 12.1704C252.342 12.6776 252.846 12.9312 253.502 12.9312ZM264.309 6.44629C263.709 6.44629 263.239 6.63802 262.899 7.02148C262.559 7.39876 262.364 7.93685 262.314 8.63574H266.285C266.273 7.93685 266.09 7.39876 265.738 7.02148C265.385 6.63802 264.909 6.44629 264.309 6.44629ZM264.708 15.1855C263.038 15.1855 261.733 14.7248 260.793 13.8032C259.853 12.8817 259.383 11.5767 259.383 9.88818C259.383 8.15023 259.816 6.80811 260.681 5.86182C261.554 4.90934 262.757 4.43311 264.29 4.43311C265.756 4.43311 266.897 4.85059 267.714 5.68555C268.53 6.52051 268.938 7.67399 268.938 9.146V10.519H262.249C262.28 11.3231 262.518 11.9508 262.964 12.4023C263.409 12.8538 264.034 13.0796 264.838 13.0796C265.462 13.0796 266.053 13.0146 266.61 12.8848C267.166 12.7549 267.748 12.5477 268.354 12.2632V14.4526C267.859 14.7 267.33 14.8825 266.767 15C266.205 15.1237 265.518 15.1855 264.708 15.1855ZM272.258 9.79541C272.258 10.8221 272.425 11.5983 272.759 12.124C273.1 12.6497 273.65 12.9126 274.411 12.9126C275.165 12.9126 275.707 12.6528 276.034 12.1333C276.368 11.6076 276.535 10.8283 276.535 9.79541C276.535 8.76872 276.368 7.9987 276.034 7.48535C275.7 6.97201 275.153 6.71533 274.392 6.71533C273.638 6.71533 273.093 6.97201 272.759 7.48535C272.425 7.99251 272.258 8.76253 272.258 9.79541ZM279.43 9.79541C279.43 11.4839 278.985 12.8044 278.094 13.7568C277.203 14.7093 275.963 15.1855 274.374 15.1855C273.378 15.1855 272.5 14.9691 271.739 14.5361C270.978 14.097 270.394 13.4692 269.986 12.6528C269.577 11.8364 269.373 10.884 269.373 9.79541C269.373 8.10075 269.815 6.78337 270.7 5.84326C271.584 4.90316 272.827 4.43311 274.429 4.43311C275.425 4.43311 276.303 4.64958 277.064 5.08252C277.825 5.51546 278.409 6.13704 278.818 6.94727C279.226 7.75749 279.43 8.70687 279.43 9.79541ZM287.769 11.9199C287.769 12.9837 287.398 13.7939 286.656 14.3506C285.92 14.9072 284.816 15.1855 283.344 15.1855C282.589 15.1855 281.946 15.133 281.414 15.0278C280.882 14.9289 280.384 14.7804 279.92 14.5825V12.2446C280.446 12.492 281.037 12.6992 281.692 12.8662C282.354 13.0332 282.936 13.1167 283.437 13.1167C284.463 13.1167 284.977 12.8198 284.977 12.2261C284.977 12.0034 284.909 11.8241 284.773 11.688C284.636 11.5457 284.401 11.388 284.067 11.2148C283.733 11.0355 283.288 10.8283 282.732 10.5933C281.934 10.2593 281.346 9.95003 280.969 9.66553C280.598 9.38102 280.326 9.05632 280.152 8.69141C279.985 8.32031 279.902 7.86572 279.902 7.32764C279.902 6.40609 280.258 5.69482 280.969 5.19385C281.686 4.68669 282.701 4.43311 284.012 4.43311C285.261 4.43311 286.476 4.70524 287.658 5.24951L286.804 7.29053C286.285 7.06787 285.799 6.88542 285.348 6.74316C284.896 6.60091 284.435 6.52979 283.965 6.52979C283.13 6.52979 282.713 6.75553 282.713 7.20703C282.713 7.46061 282.846 7.68018 283.112 7.86572C283.384 8.05127 283.975 8.3265 284.884 8.69141C285.694 9.01921 286.288 9.32536 286.665 9.60986C287.042 9.89437 287.321 10.2222 287.5 10.5933C287.679 10.9644 287.769 11.4066 287.769 11.9199Z" fill="#0769DE"/>
</svg>
